<svg width="382" height="534" viewBox="0 0 382 534" fill="none" xmlns="http://www.w3.org/2000/svg">
<circle cx="100" cy="241" r="100" fill="#FC2D2D"/>
<circle cx="135" cy="434" r="100" fill="#FC2D2D"/>
<circle cx="282" cy="308" r="100" fill="#FC2D2D"/>
<path d="M83.9423 245.941C81.4244 251.772 84.1101 258.54 89.941 261.058C95.7719 263.576 102.54 260.89 105.058 255.059L83.9423 245.941ZM129.437 429.434C126.363 434.992 128.376 441.99 133.934 445.063C139.492 448.137 146.489 446.124 149.563 440.566L129.437 429.434ZM281.579 312.156C280.837 318.464 285.349 324.179 291.656 324.921C297.964 325.663 303.679 321.152 304.421 314.844L281.579 312.156ZM282.311 79.3071C250.054 99.9025 224.249 114.76 202.99 126.886C181.885 138.924 164.724 148.561 150.463 158.414C120.791 178.914 103.582 200.46 83.9423 245.941L105.058 255.059C123.418 212.54 138.208 194.836 163.537 177.336C176.776 168.189 192.865 159.139 214.385 146.864C235.751 134.677 261.946 119.598 294.689 98.6929L282.311 79.3071ZM277.953 84.4152C216.049 226.814 191.12 291.074 175.483 330.911C160.012 370.326 153.884 385.231 129.437 429.434L149.563 440.566C174.616 395.269 181.156 379.407 196.893 339.315C212.465 299.643 237.286 235.653 299.047 93.5848L277.953 84.4152ZM277 89C277 156.729 282.513 177.526 285.756 198.854C288.774 218.707 290.038 240.253 281.579 312.156L304.421 314.844C312.962 242.247 311.976 218.293 308.494 195.396C305.237 173.974 300 154.771 300 89H277ZM298.44 94.7833L346.44 12.2833L326.56 0.716722L278.56 83.2167L298.44 94.7833Z" fill="#00CC5E"/>
</svg>
