<svg width="372" height="511" viewBox="0 0 372 511" fill="none" xmlns="http://www.w3.org/2000/svg">
<g filter="url(#filter0_i_89_6)">
<circle cx="100" cy="270" r="100" fill="#FC2D2D"/>
</g>
<g filter="url(#filter1_i_89_6)">
<circle cx="272" cy="294" r="100" fill="#FC2D2D"/>
</g>
<g filter="url(#filter2_i_89_6)">
<circle cx="139" cy="411" r="100" fill="#FC2D2D"/>
</g>
<path d="M92.9423 245.441C90.4244 251.272 93.1101 258.04 98.941 260.558C104.772 263.076 111.54 260.39 114.058 254.559L92.9423 245.441ZM150.437 357.434C147.363 362.992 149.376 369.989 154.934 373.063C160.492 376.137 167.489 374.124 170.563 368.566L150.437 357.434ZM275.079 282.156C274.337 288.464 278.849 294.179 285.156 294.921C291.464 295.663 297.179 291.151 297.921 284.844L275.079 282.156ZM280.311 74.3071C247.892 95.0059 222.771 110.137 202.345 122.805C182.077 135.375 166.254 145.624 153.245 156.202C126.406 178.026 112.247 200.735 92.9423 245.441L114.058 254.559C132.753 211.265 145.094 192.474 167.755 174.048C179.496 164.501 194.173 154.937 214.467 142.351C234.604 129.863 260.108 114.494 292.689 93.6929L280.311 74.3071ZM275.953 79.4152C214.13 221.629 194.874 269.307 185.117 292.084C175.566 314.381 175.527 312.069 150.437 357.434L170.563 368.566C194.973 324.431 196.101 324.853 206.259 301.141C216.211 277.91 235.206 230.838 297.047 88.5848L275.953 79.4152ZM275 84C275 117.597 276.069 138.119 277.445 152.284C278.796 166.196 280.548 174.544 281.487 181.225C283.371 194.637 283.608 209.656 275.079 282.156L297.921 284.844C306.392 212.844 306.629 194.863 304.263 178.025C303.077 169.581 301.642 163.492 300.337 150.06C299.056 136.881 298 117.153 298 84H275ZM295.13 91.6011L361.63 16.1011L344.37 0.898915L277.87 76.3989L295.13 91.6011Z" fill="#00E469"/>
<defs>
<filter id="filter0_i_89_6" x="0" y="170" width="200" height="204" filterUnits="userSpaceOnUse" color-interpolation-filters="sRGB">
<feFlood flood-opacity="0" result="BackgroundImageFix"/>
<feBlend mode="normal" in="SourceGraphic" in2="BackgroundImageFix" result="shape"/>
<feColorMatrix in="SourceAlpha" type="matrix" values="0 0 0 0 0 0 0 0 0 0 0 0 0 0 0 0 0 0 127 0" result="hardAlpha"/>
<feMorphology radius="20" operator="erode" in="SourceAlpha" result="effect1_innerShadow_89_6"/>
<feOffset dy="4"/>
<feGaussianBlur stdDeviation="60"/>
<feComposite in2="hardAlpha" operator="arithmetic" k2="-1" k3="1"/>
<feColorMatrix type="matrix" values="0 0 0 0 0.766667 0 0 0 0 0 0 0 0 0 0 0 0 0 0.8 0"/>
<feBlend mode="normal" in2="shape" result="effect1_innerShadow_89_6"/>
</filter>
<filter id="filter1_i_89_6" x="172" y="194" width="200" height="204" filterUnits="userSpaceOnUse" color-interpolation-filters="sRGB">
<feFlood flood-opacity="0" result="BackgroundImageFix"/>
<feBlend mode="normal" in="SourceGraphic" in2="BackgroundImageFix" result="shape"/>
<feColorMatrix in="SourceAlpha" type="matrix" values="0 0 0 0 0 0 0 0 0 0 0 0 0 0 0 0 0 0 127 0" result="hardAlpha"/>
<feMorphology radius="20" operator="erode" in="SourceAlpha" result="effect1_innerShadow_89_6"/>
<feOffset dy="4"/>
<feGaussianBlur stdDeviation="60"/>
<feComposite in2="hardAlpha" operator="arithmetic" k2="-1" k3="1"/>
<feColorMatrix type="matrix" values="0 0 0 0 0.766667 0 0 0 0 0 0 0 0 0 0 0 0 0 0.8 0"/>
<feBlend mode="normal" in2="shape" result="effect1_innerShadow_89_6"/>
</filter>
<filter id="filter2_i_89_6" x="39" y="311" width="200" height="204" filterUnits="userSpaceOnUse" color-interpolation-filters="sRGB">
<feFlood flood-opacity="0" result="BackgroundImageFix"/>
<feBlend mode="normal" in="SourceGraphic" in2="BackgroundImageFix" result="shape"/>
<feColorMatrix in="SourceAlpha" type="matrix" values="0 0 0 0 0 0 0 0 0 0 0 0 0 0 0 0 0 0 127 0" result="hardAlpha"/>
<feMorphology radius="20" operator="erode" in="SourceAlpha" result="effect1_innerShadow_89_6"/>
<feOffset dy="4"/>
<feGaussianBlur stdDeviation="60"/>
<feComposite in2="hardAlpha" operator="arithmetic" k2="-1" k3="1"/>
<feColorMatrix type="matrix" values="0 0 0 0 0.766667 0 0 0 0 0 0 0 0 0 0 0 0 0 0.8 0"/>
<feBlend mode="normal" in2="shape" result="effect1_innerShadow_89_6"/>
</filter>
</defs>
</svg>
